<?xml version="1.0" encoding="UTF-8" standalone="no"?>
<svg width="200px" height="200px" viewBox="0 0 200 200" version="1.1" xmlns="http://www.w3.org/2000/svg" xmlns:xlink="http://www.w3.org/1999/xlink">
    <!-- Generator: Sketch 39.1 (31720) - http://www.bohemiancoding.com/sketch -->
    <title>1476664317_Gift</title>
    <desc>Created with Sketch.</desc>
    <defs>
        <path d="M100,3.125 C100,1.3984375 98.6015625,0 96.875,0 L3.125,0 C1.3984375,0 0,1.3984375 0,3.125 L0,78.125 C0,79.8515625 1.3984375,81.25 3.125,81.25 L96.875,81.25 C98.6015625,81.25 100,79.8515625 100,78.125 L100,3.125 L100,3.125 Z" id="path-1"></path>
        <polygon id="path-3" points="100 45.3125 54.6875 45.3125 54.6875 0 45.3125 0 45.3125 45.3125 0 45.3125 0 56.25 45.3125 56.25 45.3125 93.75 54.6875 93.75 54.6875 56.25 100 56.25"></polygon>
    </defs>
    <g id="Page-1" stroke="none" stroke-width="1" fill="none" fill-rule="evenodd">
        <g id="1476664317_Gift">
            <g id="Layer_2">
                <g id="Group">
                    <circle id="Oval" fill="#09C6AB" cx="100" cy="100" r="100"></circle>
                    <path d="M37.44375,40.4890625 L39.0390625,44.7984375 C39.071875,44.8890625 39.14375,44.9609375 39.234375,44.99375 L43.54375,46.5890625 C43.83125,46.6953125 43.83125,47.1015625 43.54375,47.2078125 L39.234375,48.803125 C39.14375,48.8359375 39.071875,48.9078125 39.0390625,48.9984375 L37.44375,53.3078125 C37.3375,53.5953125 36.93125,53.5953125 36.825,53.3078125 L35.2296875,48.9984375 C35.196875,48.9078125 35.125,48.8359375 35.034375,48.803125 L30.725,47.2078125 C30.4375,47.1015625 30.4375,46.6953125 30.725,46.5890625 L35.034375,44.99375 C35.125,44.9609375 35.196875,44.8890625 35.2296875,44.7984375 L36.825,40.4890625 C36.93125,40.2015625 37.3375,40.2015625 37.44375,40.4890625 L37.44375,40.4890625 Z" id="Shape" fill="#F7E74A"></path>
                    <path d="M165.914063,42.515625 L167.509375,46.825 C167.542188,46.915625 167.614063,46.9875 167.704688,47.0203125 L172.014063,48.615625 C172.301563,48.721875 172.301563,49.128125 172.014063,49.2359375 L167.704688,50.83125 C167.614063,50.8640625 167.542188,50.9359375 167.509375,51.0265625 L165.914063,55.3359375 C165.807813,55.6234375 165.401563,55.6234375 165.295313,55.3359375 L163.7,51.0265625 C163.667188,50.9359375 163.595313,50.8640625 163.504688,50.83125 L159.195313,49.2359375 C158.907813,49.1296875 158.907813,48.7234375 159.195313,48.615625 L163.504688,47.0203125 C163.595313,46.9875 163.667188,46.915625 163.7,46.825 L165.295313,42.515625 C165.401563,42.228125 165.807813,42.228125 165.914063,42.515625 L165.914063,42.515625 Z" id="Shape" fill="#F7E74A"></path>
                    <path d="M35.50625,149.754688 L37.1015625,154.064063 C37.134375,154.154688 37.20625,154.226563 37.296875,154.259375 L41.60625,155.854688 C41.89375,155.960938 41.89375,156.367188 41.60625,156.473438 L37.296875,158.06875 C37.20625,158.101563 37.134375,158.173438 37.1015625,158.264063 L35.50625,162.573438 C35.4,162.860938 34.99375,162.860938 34.8875,162.573438 L33.2921875,158.264063 C33.259375,158.173438 33.1875,158.101563 33.096875,158.06875 L28.7875,156.473438 C28.5,156.367188 28.5,155.960938 28.7875,155.854688 L33.096875,154.259375 C33.1875,154.226563 33.259375,154.154688 33.2921875,154.064063 L34.8875,149.754688 C34.99375,149.467188 35.4,149.467188 35.50625,149.754688 L35.50625,149.754688 Z" id="Shape" fill="#F7E74A"></path>
                    <path d="M122.8,170.1 L124.395313,174.409375 C124.428125,174.5 124.5,174.571875 124.590625,174.604687 L128.9,176.2 C129.1875,176.30625 129.1875,176.7125 128.9,176.81875 L124.590625,178.414062 C124.5,178.446875 124.428125,178.51875 124.395313,178.609375 L122.8,182.91875 C122.69375,183.20625 122.2875,183.20625 122.18125,182.91875 L120.585938,178.609375 C120.553125,178.51875 120.48125,178.446875 120.390625,178.414062 L116.08125,176.81875 C115.79375,176.7125 115.79375,176.30625 116.08125,176.2 L120.390625,174.604687 C120.48125,174.571875 120.553125,174.5 120.585938,174.409375 L122.18125,170.1 C122.285938,169.8125 122.692188,169.8125 122.8,170.1 L122.8,170.1 Z" id="Shape" fill="#F7E74A"></path>
                    <path d="M150,79.6875 C150,77.9609375 148.601562,76.5625 146.875,76.5625 L53.125,76.5625 C51.3984375,76.5625 50,77.9609375 50,79.6875 L50,154.6875 C50,156.414062 51.3984375,157.8125 53.125,157.8125 L146.875,157.8125 C148.601562,157.8125 150,156.414062 150,154.6875 L150,79.6875 L150,79.6875 Z" id="Shape" fill="#FEF4F3"></path>
                    <g id="Clipped" transform="translate(50.000000, 76.562500)">
                        <mask id="mask-2" fill="white">
                            <use xlink:href="#path-1"></use>
                        </mask>
                        <g id="SVGID_19_"></g>
                        <polygon id="Shape" fill="#FEF4F3" opacity="0.6" mask="url(#mask-2)" points="-4.3046875 15.0546875 64.7140625 83.7890625 104.6875 83.4640625 104.6875 10.9375 0 10.9375"></polygon>
                    </g>
                    <rect id="Rectangle-path" fill="#02556D" x="50" y="109.375" width="100" height="10.9375"></rect>
                    <path d="M156.25,67.1875 C156.25,65.4609375 154.851562,64.0625 153.125,64.0625 L48.4375,64.0625 C46.7109375,64.0625 45.3125,65.4609375 45.3125,67.1875 L45.3125,89.0625 C45.3125,90.7890625 46.7109375,92.1875 48.4375,92.1875 L153.125,92.1875 C154.851562,92.1875 156.25,90.7890625 156.25,89.0625 L156.25,67.1875 L156.25,67.1875 Z" id="Shape" fill="#EAE8E8"></path>
                    <path d="M103.125,64.4140625 L142.832812,60.925 C144.801562,60.7515625 146.117188,58.8171875 145.554688,56.9234375 L142.603125,46.9734375 C142.035937,45.0609375 139.845313,44.1625 138.098438,45.1265625 L103.125,64.4140625 L103.125,64.4140625 Z" id="Shape" fill="#02556D"></path>
                    <path d="M103.125,64.4140625 L129.632812,44.6359375 C131.4125,43.3078125 131.278125,40.6015625 129.378125,39.4546875 L119.9375,33.7640625 C118.307812,32.78125 116.184375,33.471875 115.445312,35.225 L103.125,64.4140625 L103.125,64.4140625 Z" id="Shape" fill="#02556D"></path>
                    <path d="M96.875,64.4140625 L57.1671875,60.925 C55.1984375,60.7515625 53.8828125,58.8171875 54.4453125,56.9234375 L57.396875,46.9734375 C57.9640625,45.0609375 60.1546875,44.1625 61.9015625,45.1265625 L96.875,64.4140625 L96.875,64.4140625 Z" id="Shape" fill="#02556D"></path>
                    <path d="M96.875,64.4140625 L70.3671875,44.6359375 C68.5875,43.3078125 68.721875,40.6015625 70.621875,39.4546875 L80.0625,33.7640625 C81.6921875,32.78125 83.815625,33.471875 84.5546875,35.225 L96.875,64.4140625 L96.875,64.4140625 Z" id="Shape" fill="#02556D"></path>
                    <rect id="Rectangle-path" fill="#FEF4F3" x="50" y="92.1875" width="100" height="3.125"></rect>
                    <rect id="Rectangle-path" fill="#02556D" x="95.3125" y="92.1875" width="9.375" height="65.625"></rect>
                    <g id="Clipped" transform="translate(50.000000, 64.062500)">
                        <mask id="mask-4" fill="white">
                            <use xlink:href="#path-3"></use>
                        </mask>
                        <g id="SVGID_21_"></g>
                        <polygon id="Shape" fill="#02556D" opacity="0.48" mask="url(#mask-4)" points="-4.3046875 27.1640625 64.7140625 96.09375 104.6875 95.9640625 104.6875 28.0609375 -8.8817842e-16 28.053125"></polygon>
                    </g>
                    <path d="M98.5078125,63.9328125 L76.91875,79.165625 C75.0375,80.4921875 75.1890625,83.3296875 77.2,84.45 L81.9453125,87.0921875 C83.3046875,87.85 85.0140625,87.490625 85.9546875,86.25 L101.503125,65.7546875 L98.5078125,63.9328125 L98.5078125,63.9328125 Z" id="Shape" fill="#02556D"></path>
                    <path d="M101.492187,63.9328125 L123.08125,79.165625 C124.9625,80.4921875 124.810937,83.3296875 122.8,84.45 L118.054687,87.0921875 C116.695312,87.85 114.985937,87.490625 114.045312,86.25 L98.496875,65.7546875 L101.492187,63.9328125 L101.492187,63.9328125 Z" id="Shape" fill="#02556D"></path>
                    <rect id="Rectangle-path" fill="#02556D" opacity="0.69" x="95.3125" y="92.1875" width="9.375" height="3.125"></rect>
                    <rect id="Rectangle-path" fill="#02556D" x="95.3125" y="67.1875" width="9.375" height="25"></rect>
                    <path d="M107.8125,66.66875 C107.8125,68.68125 106.18125,70.3125 104.16875,70.3125 L94.2671875,70.3125 C92.25625,70.3125 90.625,68.68125 90.625,66.66875 L90.625,61.4546875 C90.625,59.44375 92.25625,57.8125 94.26875,57.8125 L104.170312,57.8125 C106.18125,57.8125 107.8125,59.44375 107.8125,61.45625 L107.8125,66.66875 L107.8125,66.66875 Z" id="Shape" fill="#02556D"></path>
                    <polygon id="Shape" fill="#02556D" opacity="0.48" points="95.034375 70.3125 104.6875 80.9890625 104.6875 70.3125"></polygon>
                    <path d="M178.65625,119.140625 C178.65625,124.396875 174.395312,128.65625 169.140625,128.65625 C165.460937,128.65625 162.479687,125.673437 162.479687,121.995312 C162.479687,119.420312 164.567187,117.332812 167.142187,117.332812 C168.945312,117.332812 170.40625,118.79375 170.40625,120.596875 C170.40625,121.859375 169.382812,122.88125 168.121875,122.88125" id="Shape" stroke="#F7E74A"></path>
                    <path d="M91.0859375,19.4140625 C92.7203125,14.41875 98.0953125,11.6953125 103.090625,13.33125 C106.8375,14.5578125 108.879688,18.5890625 107.653125,22.334375 C106.732813,25.14375 103.709375,26.6765625 100.9,25.75625 C98.7921875,25.0671875 97.64375,22.7984375 98.3328125,20.6921875 C98.85,19.1125 100.55,18.25 102.13125,18.7671875 C103.317188,19.1546875 103.9625,20.43125 103.575,21.615625" id="Shape" stroke="#F7E74A"></path>
                    <path d="M16.11875,93.4640625 C20.49375,90.5515625 26.4015625,91.7375 29.3140625,96.1125 C31.4984375,99.39375 30.609375,103.825 27.328125,106.009375 C24.8671875,107.646875 21.54375,106.98125 19.90625,104.51875 C18.678125,102.673438 19.178125,100.18125 21.0234375,98.9515625 C22.4078125,98.0296875 24.2765625,98.4046875 25.1984375,99.7890625 C25.8890625,100.826563 25.6078125,102.229688 24.5703125,102.920313" id="Shape" stroke="#F7E74A"></path>
                </g>
            </g>
        </g>
    </g>
</svg>